<svg width="32" height="32" viewBox="0 0 32 32" fill="none" xmlns="http://www.w3.org/2000/svg">
  <circle cx="16" cy="16" r="15" fill="#3B82F6" stroke="#1E40AF" stroke-width="2"/>
  <path d="M16 6C12.6863 6 10 8.68629 10 12C10 16.5 16 24 16 24C16 24 22 16.5 22 12C22 8.68629 19.3137 6 16 6Z" fill="white"/>
  <circle cx="16" cy="12" r="3" fill="#3B82F6"/>
  <circle cx="8" cy="8" r="1.5" fill="#FCD34D" opacity="0.9"/>
  <circle cx="24" cy="8" r="1.5" fill="#34D399" opacity="0.9"/>
  <circle cx="8" cy="24" r="1.5" fill="#F87171" opacity="0.9"/>
  <circle cx="24" cy="24" r="1.5" fill="#A78BFA" opacity="0.9"/>
  <line x1="8" y1="8" x2="13" y2="10" stroke="white" stroke-width="1" opacity="0.6"/>
  <line x1="24" y1="8" x2="19" y2="10" stroke="white" stroke-width="1" opacity="0.6"/>
  <line x1="8" y1="24" x2="13" y2="20" stroke="white" stroke-width="1" opacity="0.6"/>
  <line x1="24" y1="24" x2="19" y2="20" stroke="white" stroke-width="1" opacity="0.6"/>
</svg>
